<?xml version="1.0" encoding="UTF-8" standalone="no"?>
<!-- Created with Inkscape (http://www.inkscape.org/) -->

<svg
   xmlns:dc="http://purl.org/dc/elements/1.1/"
   xmlns:cc="http://creativecommons.org/ns#"
   xmlns:rdf="http://www.w3.org/1999/02/22-rdf-syntax-ns#"
   xmlns:svg="http://www.w3.org/2000/svg"
   xmlns="http://www.w3.org/2000/svg"
   xmlns:sodipodi="http://sodipodi.sourceforge.net/DTD/sodipodi-0.dtd"
   xmlns:inkscape="http://www.inkscape.org/namespaces/inkscape"
   width="32"
   height="32"
   viewBox="0 0 8.4666665 8.4666669"
   version="1.1"
   id="svg8"
   sodipodi:docname="GreekFireAttack.svg"
   inkscape:version="0.92.4 5da689c313, 2019-01-14">
  <defs
     id="defs2">
    <filter
       inkscape:collect="always"
       style="color-interpolation-filters:sRGB"
       id="filter2793"
       x="-0.060626536"
       width="1.1212531"
       y="-0.066880177"
       height="1.1337604">
      <feGaussianBlur
         inkscape:collect="always"
         stdDeviation="0.18327065"
         id="feGaussianBlur2795" />
    </filter>
    <filter
       inkscape:collect="always"
       style="color-interpolation-filters:sRGB"
       id="filter2797"
       x="-0.060626536"
       width="1.1212531"
       y="-0.066880177"
       height="1.1337604">
      <feGaussianBlur
         inkscape:collect="always"
         stdDeviation="0.18327065"
         id="feGaussianBlur2799" />
    </filter>
    <filter
       inkscape:collect="always"
       style="color-interpolation-filters:sRGB"
       id="filter2801"
       x="-0.060626536"
       width="1.1212531"
       y="-0.066880177"
       height="1.1337604">
      <feGaussianBlur
         inkscape:collect="always"
         stdDeviation="0.18327065"
         id="feGaussianBlur2803" />
    </filter>
    <filter
       inkscape:collect="always"
       style="color-interpolation-filters:sRGB"
       id="filter2805"
       x="-0.060626536"
       width="1.1212531"
       y="-0.066880177"
       height="1.1337604">
      <feGaussianBlur
         inkscape:collect="always"
         stdDeviation="0.18327065"
         id="feGaussianBlur2807" />
    </filter>
  </defs>
  <sodipodi:namedview
     id="base"
     pagecolor="#ffffff"
     bordercolor="#666666"
     borderopacity="1.0"
     inkscape:pageopacity="0.0"
     inkscape:pageshadow="2"
     inkscape:zoom="11.313708"
     inkscape:cx="14.556624"
     inkscape:cy="9.4342827"
     inkscape:document-units="mm"
     inkscape:current-layer="layer1"
     showgrid="false"
     units="px"
     inkscape:window-width="2560"
     inkscape:window-height="1394"
     inkscape:window-x="0"
     inkscape:window-y="22"
     inkscape:window-maximized="0" />
  <metadata
     id="metadata5">
    <rdf:RDF>
      <cc:Work
         rdf:about="">
        <dc:format>image/svg+xml</dc:format>
        <dc:type
           rdf:resource="http://purl.org/dc/dcmitype/StillImage" />
        <dc:title></dc:title>
      </cc:Work>
    </rdf:RDF>
  </metadata>
  <g
     inkscape:label="Layer 1"
     inkscape:groupmode="layer"
     id="layer1"
     transform="translate(0,-288.53332)">
    <path
       sodipodi:type="spiral"
       style="fill:none;fill-rule:evenodd;stroke:#7cff00;stroke-width:0.60854167;stroke-miterlimit:4;stroke-dasharray:1.82562496, 0.60854165;stroke-dashoffset:0;stroke-opacity:1;filter:url(#filter2805)"
       id="path923"
       sodipodi:cx="4.0090432"
       sodipodi:cy="293.02435"
       sodipodi:expansion="1"
       sodipodi:revolution="3"
       sodipodi:radius="4.0908937"
       sodipodi:argument="-18.309137"
       sodipodi:t0="0"
       d="m 4.0090432,293.02435 c 0.1758813,0.10553 -0.055477,0.28915 -0.1753953,0.29233 -0.3249721,0.009 -0.4730561,-0.37337 -0.4092571,-0.64312 0.1141215,-0.48251 0.6753409,-0.67599 1.1108385,-0.52619 0.6391101,0.21985 0.8836175,0.98093 0.6431187,1.57856 -0.3205471,0.79656 -1.2877244,1.09316 -2.0462815,0.76005 -0.9545668,-0.41917 -1.3036631,-1.59509 -0.8769805,-2.514 0.5167698,-1.11292 1.9027755,-1.51473 2.9817247,-0.99391 1.2715043,0.61377 1.7261563,2.21065 1.1108421,3.44945 -0.7104046,1.43023 -2.5186659,1.93781 -3.9171678,1.22777 -1.58906667,-0.80679 -2.14963504,-2.82677 -1.3447038,-4.38489 0.9030113,-1.74798 3.1349392,-2.36158 4.8526109,-1.46164 1.9069412,0.99911 2.5736063,3.44317 1.5785655,5.32034"
       transform="matrix(1.0158569,0,0,1.0447638,-0.15626481,-13.142756)" />
    <path
       d="m 4.0090432,293.02435 c 0.1758813,0.10553 -0.055477,0.28915 -0.1753953,0.29233 -0.3249721,0.009 -0.4730561,-0.37337 -0.4092571,-0.64312 0.1141215,-0.48251 0.6753409,-0.67599 1.1108385,-0.52619 0.6391101,0.21985 0.8836175,0.98093 0.6431187,1.57856 -0.3205471,0.79656 -1.2877244,1.09316 -2.0462815,0.76005 -0.9545668,-0.41917 -1.3036631,-1.59509 -0.8769805,-2.514 0.5167698,-1.11292 1.9027755,-1.51473 2.9817247,-0.99391 1.2715043,0.61377 1.7261563,2.21065 1.1108421,3.44945 -0.7104046,1.43023 -2.5186659,1.93781 -3.9171678,1.22777 -1.58906667,-0.80679 -2.14963504,-2.82677 -1.3447038,-4.38489 0.9030113,-1.74798 3.1349392,-2.36158 4.8526109,-1.46164 1.9069412,0.99911 2.5736063,3.44317 1.5785655,5.32034"
       sodipodi:t0="0"
       sodipodi:argument="-18.309137"
       sodipodi:radius="4.0908937"
       sodipodi:revolution="3"
       sodipodi:expansion="1"
       sodipodi:cy="293.02435"
       sodipodi:cx="4.0090432"
       id="path1747"
       style="fill:none;fill-rule:evenodd;stroke:#7cff00;stroke-width:0.60854167;stroke-miterlimit:4;stroke-dasharray:1.82562496, 0.60854165;stroke-dashoffset:0;stroke-opacity:1;filter:url(#filter2801)"
       sodipodi:type="spiral"
       transform="matrix(1.0158569,0,0,1.0447638,-0.15626481,-13.142756)" />
    <path
       sodipodi:type="spiral"
       style="fill:none;fill-rule:evenodd;stroke:#7cff00;stroke-width:0.60854167;stroke-miterlimit:4;stroke-dasharray:1.82562496, 0.60854165;stroke-dashoffset:0;stroke-opacity:1;filter:url(#filter2797)"
       id="path1749"
       sodipodi:cx="4.0090432"
       sodipodi:cy="293.02435"
       sodipodi:expansion="1"
       sodipodi:revolution="3"
       sodipodi:radius="4.0908937"
       sodipodi:argument="-18.309137"
       sodipodi:t0="0"
       d="m 4.0090432,293.02435 c 0.1758813,0.10553 -0.055477,0.28915 -0.1753953,0.29233 -0.3249721,0.009 -0.4730561,-0.37337 -0.4092571,-0.64312 0.1141215,-0.48251 0.6753409,-0.67599 1.1108385,-0.52619 0.6391101,0.21985 0.8836175,0.98093 0.6431187,1.57856 -0.3205471,0.79656 -1.2877244,1.09316 -2.0462815,0.76005 -0.9545668,-0.41917 -1.3036631,-1.59509 -0.8769805,-2.514 0.5167698,-1.11292 1.9027755,-1.51473 2.9817247,-0.99391 1.2715043,0.61377 1.7261563,2.21065 1.1108421,3.44945 -0.7104046,1.43023 -2.5186659,1.93781 -3.9171678,1.22777 -1.58906667,-0.80679 -2.14963504,-2.82677 -1.3447038,-4.38489 0.9030113,-1.74798 3.1349392,-2.36158 4.8526109,-1.46164 1.9069412,0.99911 2.5736063,3.44317 1.5785655,5.32034"
       transform="matrix(1.0158569,0,0,1.0447638,-0.15626481,-13.142756)" />
    <path
       d="m 4.0090432,293.02435 c 0.1758813,0.10553 -0.055477,0.28915 -0.1753953,0.29233 -0.3249721,0.009 -0.4730561,-0.37337 -0.4092571,-0.64312 0.1141215,-0.48251 0.6753409,-0.67599 1.1108385,-0.52619 0.6391101,0.21985 0.8836175,0.98093 0.6431187,1.57856 -0.3205471,0.79656 -1.2877244,1.09316 -2.0462815,0.76005 -0.9545668,-0.41917 -1.3036631,-1.59509 -0.8769805,-2.514 0.5167698,-1.11292 1.9027755,-1.51473 2.9817247,-0.99391 1.2715043,0.61377 1.7261563,2.21065 1.1108421,3.44945 -0.7104046,1.43023 -2.5186659,1.93781 -3.9171678,1.22777 -1.58906667,-0.80679 -2.14963504,-2.82677 -1.3447038,-4.38489 0.9030113,-1.74798 3.1349392,-2.36158 4.8526109,-1.46164 1.9069412,0.99911 2.5736063,3.44317 1.5785655,5.32034"
       sodipodi:t0="0"
       sodipodi:argument="-18.309137"
       sodipodi:radius="4.0908937"
       sodipodi:revolution="3"
       sodipodi:expansion="1"
       sodipodi:cy="293.02435"
       sodipodi:cx="4.0090432"
       id="path1751"
       style="fill:none;fill-rule:evenodd;stroke:#7cff00;stroke-width:0.60854167;stroke-miterlimit:4;stroke-dasharray:1.82562496, 0.60854165;stroke-dashoffset:0;stroke-opacity:1;filter:url(#filter2793)"
       sodipodi:type="spiral"
       transform="matrix(1.0158569,0,0,1.0447638,-0.15626481,-13.142756)" />
  </g>
</svg>
