<?xml version="1.0" encoding="UTF-8" standalone="no"?>
<!-- Created with Inkscape (http://www.inkscape.org/) -->

<svg
   xmlns:dc="http://purl.org/dc/elements/1.1/"
   xmlns:cc="http://creativecommons.org/ns#"
   xmlns:rdf="http://www.w3.org/1999/02/22-rdf-syntax-ns#"
   xmlns:svg="http://www.w3.org/2000/svg"
   xmlns="http://www.w3.org/2000/svg"
   xmlns:sodipodi="http://sodipodi.sourceforge.net/DTD/sodipodi-0.dtd"
   xmlns:inkscape="http://www.inkscape.org/namespaces/inkscape"
   width="7.2963691mm"
   height="8.4666767mm"
   viewBox="0 0 7.296369 8.4666767"
   version="1.1"
   id="svg1187"
   inkscape:version="0.92.4 (5da689c313, 2019-01-14)"
   sodipodi:docname="Raccoon.svg">
  <defs
     id="defs1181" />
  <sodipodi:namedview
     id="base"
     pagecolor="#ffffff"
     bordercolor="#666666"
     borderopacity="1.0"
     inkscape:pageopacity="0.0"
     inkscape:pageshadow="2"
     inkscape:zoom="3.959798"
     inkscape:cx="-62.849229"
     inkscape:cy="13.911203"
     inkscape:document-units="mm"
     inkscape:current-layer="layer1"
     showgrid="false"
     inkscape:window-width="1920"
     inkscape:window-height="1017"
     inkscape:window-x="-8"
     inkscape:window-y="-8"
     inkscape:window-maximized="1" />
  <metadata
     id="metadata1184">
    <rdf:RDF>
      <cc:Work
         rdf:about="">
        <dc:format>image/svg+xml</dc:format>
        <dc:type
           rdf:resource="http://purl.org/dc/dcmitype/StillImage" />
        <dc:title></dc:title>
      </cc:Work>
    </rdf:RDF>
  </metadata>
  <g
     inkscape:label="Layer 1"
     inkscape:groupmode="layer"
     id="layer1"
     transform="translate(-94.740233,-113.47298)">
    <path
       style="fill:#7e324e;fill-opacity:1;stroke:none;stroke-width:0.29083523"
       d="m 100.08508,119.24584 c -0.47973,-1.53491 -1.328482,-1.31565 -1.402288,-2.66783 -0.07381,-1.3522 0.405925,-2.41202 0.405925,-2.41202 0,0 -0.258314,-0.8771 0.147608,-0.65781 0.405924,0.21927 1.476095,0.76746 1.549895,1.82727 0.0738,1.05982 0.78659,1.69514 0.4302,2.7114 -0.3564,1.01626 -0.68852,1.56445 -0.68852,1.56445 z"
       id="path1026-2"
       inkscape:connector-curvature="0"
       inkscape:export-xdpi="96"
       inkscape:export-ydpi="96" />
    <path
       style="fill:#ff5251;fill-opacity:1;stroke:none;stroke-width:0.27316326"
       d="m 98.758639,115.33008 0.975659,-0.23379 1.037202,0.11084 0.0949,0.61593 -0.994135,0.23901 -1.18828,-0.17856 z"
       id="path1029-9"
       inkscape:connector-curvature="0"
       sodipodi:nodetypes="ccccccc"
       inkscape:export-xdpi="96"
       inkscape:export-ydpi="96" />
    <path
       style="fill:#ff5251;fill-opacity:1;stroke:none;stroke-width:0.27316326"
       d="m 99.088715,114.16599 0.917325,-0.17434 0.15795,0.13719 0.20552,0.2143 -0.46965,0.26828 -0.987777,0.0244 z"
       id="path1031-5"
       inkscape:connector-curvature="0"
       sodipodi:nodetypes="ccccccc"
       inkscape:export-xdpi="96"
       inkscape:export-ydpi="96" />
    <path
       style="fill:#ff5251;fill-opacity:1;stroke:none;stroke-width:0.27316326"
       d="m 98.68648,116.62478 1.084117,-0.17926 1.341273,0.1163 0.0756,0.21312 0.0599,0.20837 -1.271921,0.17073 -1.217497,-0.08 -0.05693,-0.25804 z"
       id="path1033-5"
       inkscape:connector-curvature="0"
       sodipodi:nodetypes="ccccccccc"
       inkscape:export-xdpi="96"
       inkscape:export-ydpi="96" />
    <path
       style="fill:#ff5251;fill-opacity:1;stroke:none;stroke-width:0.0994864px;stroke-linecap:butt;stroke-linejoin:miter;stroke-opacity:1"
       d="m 95.423994,117.23797 c 0.475784,0.60396 0.435511,0.69834 0.6418,0.80963 0.457443,0.0936 1.117468,-0.50808 2.292145,-0.53975 1.630918,-0.044 1.968361,0.64797 2.292151,0.53975 0.28417,-0.095 0.0349,-0.1835 0.6418,-0.80963 0.88178,-0.77655 0.85978,1.52619 0.5501,1.88914 -0.21494,0.34718 -0.22555,0.33417 -0.0458,0.53975 0.51255,0.58735 -0.32753,1.26716 -0.92923,1.6442 -1.96104,0.77191 -2.789072,0.87077 -4.836866,0.0846 -0.735585,-0.30184 -1.692419,-0.77744 -1.110328,-1.7287 0.141771,-0.23168 0.103047,-0.23546 -0.04584,-0.53975 -0.298628,-0.7763 -0.02625,-2.5553 0.550114,-1.88914 z"
       id="path85-9-1"
       inkscape:connector-curvature="0"
       sodipodi:nodetypes="ccsscccccsccc"
       inkscape:export-xdpi="96"
       inkscape:export-ydpi="96" />
    <path
       style="fill:#7e324e;fill-opacity:1;stroke:none;stroke-width:0.3064765px;stroke-linecap:butt;stroke-linejoin:miter;stroke-opacity:1"
       d="m 99.03971,118.53998 c -0.515927,0.90999 -0.570237,1.15817 -0.380156,1.3512 0.190079,0.19302 0.760314,0.5515 0.896083,0.82725 0.135771,0.27576 0.488773,0.74455 0.896083,0.66182 0.40731,-0.0828 0.97755,-0.41363 0.84178,-0.82727 -0.13577,-0.41363 -0.59739,-0.82726 -0.95039,-1.07543 -0.353005,-0.24819 -0.407316,-0.91 -1.3034,-0.93757 z"
       id="path966-5-7-8"
       inkscape:connector-curvature="0"
       inkscape:export-xdpi="96"
       inkscape:export-ydpi="96" />
    <path
       style="fill:#7e324e;fill-opacity:1;stroke:none;stroke-width:0.30647647px;stroke-linecap:butt;stroke-linejoin:miter;stroke-opacity:1"
       d="m 97.820777,118.55826 c 0.515927,0.90999 0.570236,1.15817 0.380156,1.3512 -0.190079,0.19303 -0.760314,0.55151 -0.896083,0.82726 -0.135771,0.27576 -0.488775,0.74454 -0.896085,0.66181 -0.407313,-0.0828 -0.977549,-0.41363 -0.841778,-0.82727 0.135771,-0.41362 0.597391,-0.82725 0.950393,-1.07543 0.353002,-0.24818 0.407313,-0.90999 1.303397,-0.93757 z"
       id="path966-5-4"
       inkscape:connector-curvature="0"
       inkscape:export-xdpi="96"
       inkscape:export-ydpi="96" />
    <ellipse
       style="fill:#000000;fill-opacity:1;stroke:none;stroke-width:0.11555696"
       id="path901-27-1"
       cx="97.504318"
       cy="119.43665"
       rx="0.47803575"
       ry="0.49169388"
       inkscape:export-xdpi="96"
       inkscape:export-ydpi="96" />
    <circle
       style="fill:#000000;fill-opacity:1;stroke:none;stroke-width:0.1139407"
       id="path901-2-5-3"
       cx="99.382851"
       cy="119.45032"
       r="0.47803575"
       inkscape:export-xdpi="96"
       inkscape:export-ydpi="96" />
  </g>
</svg>
